<svg xmlns="http://www.w3.org/2000/svg" viewBox="0 0 500 495.66"><path d="M357.34,25.11c22,4.33,42.31,15.75,56,33.44,9.69,12.52,17.22,27.17,20.26,44.62,3.73,21.34,7.68,42.22,21.68,59.78a109.69,109.69,0,0,0,12.55,13.71C486,193,505.75,208,514.44,232.55c8.51,24.06,3.15,46.73-3.55,69.95-8.68,30.06-33.24,45.14-56,61.94-19.22,14.17-38.25,28.35-52.6,47.91-10.05,13.71-16,29.65-24.74,44-11.92,19.52-21.47,40.48-43.24,53.1-18.59,10.78-41.81,9.62-60.55-.89-20-11.23-39.82-22.66-58.71-35.73-23.9-16.54-51.73-20-79.48-25.81-41-8.64-76.92-29.22-101.41-64.81-18.48-26.87-18.94-56.41-8.21-86.61a133.45,133.45,0,0,1,11.22-22.94c15.49-26.36,17.35-55.78,16.28-85.21-.93-25.82,2.38-50.86,11.71-74.56s30.64-33.49,54.33-37.82c19.65-3.6,40-1,59.54-5.9,25.61-6.43,49.76-16.78,72.56-29.65,33.53-19,68.5-21.77,105.46-14.48ZM229.93,332c1.63-3.13,3-6.43,4.93-9.37,5.1-7.81,4.65-13.7-3.21-20.19-5.51-4.55-9.76-11.47-12.69-18.15-5.12-11.69-12.38-17.13-25.7-15.78-7.94.81-16.23-1.44-24.32-2.61-25.88-3.75-51.45-3.17-76.68,4.49-20.22,6.14-38.61,27.73-34.43,53,3.59,21.68,15,38.54,28.35,55.35,27.21,34.39,81,37,109.2,3.37C208.38,366.56,220.87,350.37,229.93,332ZM82.84,149.94c-10.48,19.11-13.41,33.62-13.25,48.67.29,26.49,13.59,40.12,39.69,44.71,30.91,5.43,62.58,2.75,93.24,9.89,3.54.83,7.19.53,8.79-3.76,4.8-12.95,12.61-24.19,21.19-34.71,6.06-7.42,7.06-13.92,3.27-22.81-12-28.16-23.58-56.41-49.23-75.67C164.2,99.47,130.75,97.5,112,113,98,124.6,88.67,140.1,82.84,149.94ZM378.32,347.57c3.63,1.88,7.92,5,12.73,6.43,12.45,3.68,25.52,7.18,36.61-2.88,8.33-7.56,15.81-15.86,21.21-26.27a139.88,139.88,0,0,0,16.18-67.7c-.6-33.85-15.82-56.53-52.82-53.23-20.23,1.81-40.17,6.32-60,11.24-12,3-22.33,9.15-32.84,15.11-5,2.82-8.16,5.79-7,13,1.19,7.47,1.68,16.46-1.41,23-10.32,21.72-3.92,35.75,16.55,46.15C345.74,321.57,358.27,339.12,378.32,347.57Zm10.19-198.2c12.57-24.1,10-42.57-6.45-56.9-27.54-24-59.62-34.56-96.43-31-22.57,2.16-39,14.06-43.7,36-6.74,31.7-.61,62.3,10.44,92.18,1.22,3.29,3.8,4.88,6.85,5.94,8.86,3.07,18.27,5.07,26.48,9.36,17.85,9.35,32.59,13.6,50.84-3C356.25,183.93,376.43,167,388.51,149.37ZM255.26,454.17c27.82,15.12,72,9.49,95-12.77,24.27-23.56,25.74-62.25,3.08-86.84-12.15-13.2-25.19-25.51-39.9-36.13-11.67-8.42-22.69-14.74-37.14-7.38-4.42,2.24-9.28.44-13.94.35-7.53-.15-12.65,1.85-16.57,9.72A307.12,307.12,0,0,0,227,369.05C216.15,404.89,227.62,439.15,255.26,454.17Zm36.46-219.69c-8.54-.57-17.13-7.41-27.05-11-9-3.23-15.59-2.94-20.85,5.56-4.23,6.84-13.46,12.29-11.71,20.74,2.51,12.06,5.82,25.29,13.11,34.68,8.72,11.24,22.66-.44,34.25,1.64,4.63.83,7.25-2.08,8.64-6.21,3.46-10.32,7.09-20.6,10.25-31C300,243.61,301.33,237.84,291.72,234.48Z" transform="translate(-18.82 -21.35)" style="fill:#bb8632"/></svg>